<svg width="18" height="18" viewBox="0 0 18 18" fill="none" xmlns="http://www.w3.org/2000/svg">
<path d="M13.7122 4.31575C13.3923 3.99365 13.3923 3.47732 13.7122 3.15521L15.4307 1.02632L15.4307 0.989366C15.866 0.558664 16.5718 0.558664 17.0072 0.989366C17.4425 1.42007 17.4425 2.11837 17.0072 2.54907L14.9824 4.31575L14.9067 4.38279C14.7487 4.50768 14.5516 4.57665 14.3473 4.57665C14.109 4.57665 13.8805 4.48277 13.7122 4.31575ZM0.666992 10.185C0.666992 8.2892 1.42819 6.47107 2.78313 5.13055C4.13807 3.79004 5.97576 3.03694 7.89193 3.03694C11.8822 3.03694 15.1169 6.23722 15.1169 10.185C15.1169 14.1327 11.8822 17.333 7.89193 17.333C3.90171 17.333 0.666992 14.1327 0.666992 10.185Z" fill="white"/>
</svg>
