<svg width="18" height="6" viewBox="0 0 18 6" fill="none" xmlns="http://www.w3.org/2000/svg">
<mask id="path-1-inside-1_390_27658" fill="white">
<path d="M9 6C11.6652 6 14.3304 3.8953 16.0607 2.17899C16.4599 1.78308 15.9792 1.21218 15.4822 1.47489C13.6013 2.46902 11.0181 3.6 9 3.6C6.98194 3.6 4.39867 2.46902 2.5178 1.47489C2.02076 1.21218 1.54012 1.78308 1.93926 2.17899C3.66956 3.89529 6.33478 6 9 6Z"/>
</mask>
<path d="M16.0607 2.17899L18.1734 4.30891V4.30891L16.0607 2.17899ZM1.93926 2.17899L-0.173422 4.30891H-0.173422L1.93926 2.17899ZM2.5178 1.47489L3.91967 -1.17743L3.91967 -1.17743L2.5178 1.47489ZM15.4822 1.47489L14.0803 -1.17743L14.0803 -1.17743L15.4822 1.47489ZM13.948 0.049074C13.1783 0.81264 12.2652 1.59533 11.3201 2.17117C10.3491 2.76271 9.56719 3 9 3V9C11.098 9 12.9813 8.18493 14.4419 7.29505C15.9282 6.38946 17.2129 5.26165 18.1734 4.30891L13.948 0.049074ZM9 3C8.43281 3 7.65087 2.76271 6.67995 2.17117C5.73482 1.59533 4.82175 0.812639 4.05195 0.049073L-0.173422 4.30891C0.787084 5.26165 2.07177 6.38946 3.55813 7.29505C5.0187 8.18493 6.90197 9 9 9V3ZM1.11593 4.1272C2.1314 4.66392 3.3827 5.26289 4.69336 5.73365C5.96695 6.19109 7.49206 6.6 9 6.6V0.6C8.48988 0.6 7.71432 0.443418 6.72155 0.0868389C5.76584 -0.25643 4.78507 -0.720021 3.91967 -1.17743L1.11593 4.1272ZM9 6.6C10.5079 6.6 12.033 6.19109 13.3066 5.73365C14.6173 5.26289 15.8686 4.66392 16.8841 4.1272L14.0803 -1.17743C13.2149 -0.720021 12.2342 -0.256429 11.2785 0.0868391C10.2857 0.443418 9.51013 0.6 9 0.6V6.6ZM18.1734 4.30891C18.7674 3.71973 19.1776 2.8995 19.2071 1.95927C19.2356 1.05506 18.905 0.252582 18.4152 -0.337022C17.4114 -1.54535 15.6321 -1.99762 14.0803 -1.17743L16.8841 4.1272C15.8293 4.68469 14.5389 4.38651 13.7999 3.49694C13.4425 3.06671 13.1883 2.46477 13.2101 1.77075C13.2331 1.0407 13.5536 0.440306 13.948 0.0490747L18.1734 4.30891ZM4.05195 0.0490731C4.44637 0.440304 4.76695 1.0407 4.7899 1.77075C4.81171 2.46477 4.55749 3.06672 4.2001 3.49694C3.46112 4.38651 2.17068 4.68469 1.11593 4.1272L3.91967 -1.17743C2.36787 -1.99762 0.588602 -1.54535 -0.415169 -0.337029C-0.904961 0.252574 -1.23557 1.05505 -1.20714 1.95926C-1.17759 2.8995 -0.767415 3.71972 -0.173422 4.30891L4.05195 0.0490731Z" fill="white" mask="url(#path-1-inside-1_390_27658)"/>
</svg>
