<svg width="40" height="40" viewBox="0 0 40 40" fill="none" xmlns="http://www.w3.org/2000/svg">
<path d="M38.9382 3.19842C38.2534 2.53107 37.348 2.17779 36.3926 2.20185C34.5048 2.25052 32.969 3.85069 32.969 5.76914V14.668C31.7321 14.2327 30.2986 14.5087 29.3113 15.4962L20.5413 24.2661C20.3447 24.4627 20.1647 24.6714 20.0002 24.8897C19.8356 24.6713 19.6555 24.4627 19.459 24.266L10.6891 15.4961C9.7018 14.5087 8.26827 14.2327 7.03131 14.6679V5.71633C7.03131 4.76007 6.65412 3.86585 5.96919 3.19842C5.28442 2.53107 4.37957 2.17763 3.42362 2.20185C1.53587 2.25052 0 3.85069 0 5.76914V18.9114C0 20.1103 0.339065 21.2793 0.980477 22.2919L7.44014 32.4906C8.03319 33.4269 8.34671 34.5077 8.34671 35.616V38.828C8.34671 39.4752 8.8714 39.9999 9.51859 39.9999H30.4819C31.1291 39.9999 31.6538 39.4752 31.6538 38.828V35.616C31.6538 34.5077 31.9672 33.4269 32.5603 32.4907L39.0199 22.292C39.6613 21.2793 40.0003 20.1103 40.0003 18.9114V5.71633C40.0003 4.76015 39.6231 3.86593 38.9382 3.19842ZM9.42015 31.2365L2.96049 21.0378C2.55697 20.4008 2.34377 19.6655 2.34377 18.9114V5.76914C2.34377 5.11031 2.85526 4.56109 3.48401 4.54492C3.80323 4.53718 4.10527 4.6546 4.33347 4.87695C4.56176 5.09945 4.68754 5.39758 4.68754 5.71633V18.0211C4.68754 18.0537 4.6898 18.0857 4.69238 18.1175C4.72504 18.9721 5.06621 19.817 5.71723 20.468L9.99172 24.7425C10.4493 25.2002 11.1913 25.2002 11.649 24.7425C12.1067 24.2848 12.1067 23.5429 11.649 23.0852L7.37451 18.8107C6.91763 18.3538 6.91763 17.6103 7.37451 17.1535C7.83155 16.6966 8.57491 16.6966 9.03187 17.1535L17.8016 25.9232C18.4637 26.5854 18.8283 27.4692 18.8283 28.4118V37.6561H10.6904V35.616C10.6904 34.063 10.2512 32.5486 9.42015 31.2365ZM37.6566 18.9114C37.6566 19.6655 37.4433 20.4008 37.0397 21.0378L30.5802 31.2365C29.7491 32.5485 29.3099 34.063 29.3099 35.616V37.6561H21.172V28.4118C21.172 27.4692 21.5367 26.5854 22.1986 25.9233L30.9685 17.1534C31.4256 16.6965 32.1689 16.6965 32.6258 17.1534C33.0805 17.5899 33.0805 18.3744 32.6255 18.811L28.3513 23.088C27.8939 23.5458 27.8941 24.2877 28.3519 24.7452C28.8095 25.2027 29.5515 25.2026 30.0092 24.7447L34.2831 20.468C34.9293 19.8218 35.2919 18.9682 35.311 18.0574C35.3114 18.0453 35.3128 18.0334 35.3128 18.0211V5.76914C35.3128 5.11031 35.8243 4.56109 36.453 4.54492C36.7706 4.53624 37.0742 4.6546 37.3025 4.87695C37.5308 5.09953 37.6566 5.39766 37.6566 5.71641V18.9114Z" fill="#4640DE" stroke="#4640DE" stroke-width="0.5"/>
<path d="M11.8338 10.3305C11.8839 10.3849 12.0564 10.5549 15.3399 13.7566C17.0524 15.4266 18.992 17.3179 19.1482 17.4754C19.3689 17.705 19.6738 17.8352 19.993 17.8352C20.3166 17.8353 20.6257 17.7014 20.8471 17.4659C21.0141 17.2939 22.8073 15.5484 24.3903 14.0074C27.1619 11.3094 28.0425 10.4503 28.1527 10.3307C28.1781 10.3033 28.2019 10.2748 28.2241 10.2455C32.0122 5.43712 28.5623 0.0385616 23.6727 0.0153583C22.3457 0.0358273 21.087 0.491456 19.9811 1.34349C17.1334 -0.811523 14.0002 -0.112221 12.146 1.60232C9.64462 3.88742 9.52056 7.70386 11.7995 10.2916C11.8107 10.3048 11.8221 10.3178 11.8338 10.3305ZM13.7373 3.32312C14.9306 2.21944 17.0698 1.66568 19.1703 3.73711C19.3931 3.95672 19.6956 4.07789 20.0071 4.07445C20.3199 4.0707 20.6182 3.94211 20.8356 3.71726C22.1364 2.37194 24.3851 1.67279 26.2487 3.31617C27.4665 4.39016 28.2331 6.45752 26.4089 8.7627C26.1145 9.05824 24.2589 10.8646 22.7554 12.3281C21.4286 13.6197 20.5514 14.474 19.9918 15.0206C19.1937 14.2394 14.165 9.3402 13.5622 8.7459C12.3699 7.30253 11.9199 5.00384 13.7373 3.32312Z" fill="#4640DE" stroke="#4640DE" stroke-width="0.5"/>
</svg>
