<svg width="17" height="18" viewBox="0 0 17 18" fill="none" xmlns="http://www.w3.org/2000/svg">
<path d="M13.3797 4.31575C13.0598 3.99365 13.0598 3.47732 13.3797 3.15521L15.0982 1.02632L15.0982 0.989366C15.5335 0.558664 16.2393 0.558664 16.6746 0.989366C17.11 1.42007 17.11 2.11837 16.6746 2.54907L14.6499 4.31575L14.5742 4.38279C14.4161 4.50768 14.2191 4.57665 14.0148 4.57665C13.7765 4.57665 13.5479 4.48277 13.3797 4.31575ZM0.334472 10.185C0.334472 8.2892 1.09567 6.47107 2.45061 5.13055C3.80555 3.79004 5.64324 3.03694 7.55941 3.03694C11.5496 3.03694 14.7843 6.23722 14.7843 10.185C14.7843 14.1327 11.5496 17.333 7.55941 17.333C3.56919 17.333 0.334473 14.1327 0.334472 10.185Z" fill="white"/>
</svg>
