<svg width="19" height="6" viewBox="0 0 19 6" fill="none" xmlns="http://www.w3.org/2000/svg">
<mask id="path-1-inside-1_398_11545" fill="white">
<path d="M9.66797 6C12.3332 6 14.9984 3.8953 16.7287 2.17899C17.1278 1.78308 16.6472 1.21218 16.1502 1.47489C14.2693 2.46902 11.686 3.6 9.66797 3.6C7.64991 3.6 5.06664 2.46902 3.18576 1.47489C2.68873 1.21218 2.20809 1.78308 2.60723 2.17899C4.33753 3.89529 7.00275 6 9.66797 6Z"/>
</mask>
<path d="M16.7287 2.17899L18.8414 4.30891V4.30891L16.7287 2.17899ZM2.60723 2.17899L0.494546 4.30891H0.494546L2.60723 2.17899ZM3.18576 1.47489L4.58763 -1.17743L4.58763 -1.17743L3.18576 1.47489ZM16.1502 1.47489L14.7483 -1.17743L14.7483 -1.17743L16.1502 1.47489ZM14.616 0.049074C13.8462 0.81264 12.9331 1.59533 11.988 2.17117C11.0171 2.76271 10.2352 3 9.66797 3V9C11.766 9 13.6493 8.18493 15.1098 7.29505C16.5962 6.38946 17.8809 5.26165 18.8414 4.30891L14.616 0.049074ZM9.66797 3C9.10078 3 8.31884 2.76271 7.34792 2.17117C6.40279 1.59533 5.48971 0.812639 4.71992 0.049073L0.494546 4.30891C1.45505 5.26165 2.73973 6.38946 4.2261 7.29505C5.68667 8.18493 7.56994 9 9.66797 9V3ZM1.78389 4.1272C2.79937 4.66392 4.05067 5.26289 5.36132 5.73365C6.63492 6.19109 8.16003 6.6 9.66797 6.6V0.6C9.15785 0.6 8.38229 0.443418 7.38952 0.0868389C6.43381 -0.25643 5.45304 -0.720021 4.58763 -1.17743L1.78389 4.1272ZM9.66797 6.6C11.1759 6.6 12.701 6.19109 13.9746 5.73365C15.2853 5.26289 16.5366 4.66392 17.552 4.1272L14.7483 -1.17743C13.8829 -0.720021 12.9021 -0.256429 11.9464 0.0868391C10.9536 0.443418 10.1781 0.6 9.66797 0.6V6.6ZM18.8414 4.30891C19.4354 3.71973 19.8456 2.8995 19.8751 1.95927C19.9035 1.05506 19.5729 0.252582 19.0831 -0.337022C18.0794 -1.54535 16.3001 -1.99762 14.7483 -1.17743L17.552 4.1272C16.4973 4.68469 15.2068 4.38651 14.4679 3.49694C14.1105 3.06671 13.8563 2.46477 13.8781 1.77075C13.901 1.0407 14.2216 0.440306 14.616 0.0490747L18.8414 4.30891ZM4.71992 0.0490731C5.11434 0.440304 5.43492 1.0407 5.45786 1.77075C5.47968 2.46477 5.22546 3.06672 4.86806 3.49694C4.12909 4.38651 2.83865 4.68469 1.78389 4.1272L4.58763 -1.17743C3.03584 -1.99762 1.25657 -1.54535 0.2528 -0.337029C-0.236993 0.252574 -0.567596 1.05505 -0.539174 1.95926C-0.509619 2.8995 -0.0994461 3.71972 0.494546 4.30891L4.71992 0.0490731Z" fill="white" mask="url(#path-1-inside-1_398_11545)"/>
</svg>
