<svg width="24" height="25" viewBox="0 0 24 25" fill="none" xmlns="http://www.w3.org/2000/svg">
<g clip-path="url(#clip0_398_10506)">
<path d="M15.0002 7.56295L8.50019 14.063C8.10237 14.4608 7.87887 15.0003 7.87887 15.563C7.87887 16.1256 8.10237 16.6651 8.50019 17.063C8.89802 17.4608 9.43758 17.6843 10.0002 17.6843C10.5628 17.6843 11.1024 17.4608 11.5002 17.063L18.0002 10.563C18.7958 9.7673 19.2428 8.68817 19.2428 7.56295C19.2428 6.43773 18.7958 5.3586 18.0002 4.56295C17.2045 3.7673 16.1254 3.32031 15.0002 3.32031C13.875 3.32031 12.7958 3.7673 12.0002 4.56295L5.50019 11.063C4.30672 12.2564 3.63623 13.8751 3.63623 15.563C3.63623 17.2508 4.30672 18.8695 5.50019 20.063C6.69367 21.2564 8.31236 21.9269 10.0002 21.9269C11.688 21.9269 13.3067 21.2564 14.5002 20.063L21.0002 13.563" stroke="#4640DE" stroke-width="2" stroke-linecap="round" stroke-linejoin="round"/>
</g>
<defs>
<clipPath id="clip0_398_10506">
<rect width="24" height="24" fill="white" transform="translate(0 0.5625)"/>
</clipPath>
</defs>
</svg>
