<svg width="88" height="88" viewBox="0 0 88 88" fill="none" xmlns="http://www.w3.org/2000/svg">
<g opacity="0.3">
<path fill-rule="evenodd" clip-rule="evenodd" d="M25.6667 14.6663C24.6943 14.6663 23.7617 15.0526 23.074 15.7403C22.3864 16.4279 22.0001 17.3605 22.0001 18.333V69.6663C22.0001 70.6388 22.3864 71.5714 23.074 72.2591C23.7617 72.9467 24.6943 73.333 25.6667 73.333H62.3334C63.3059 73.333 64.2385 72.9467 64.9261 72.2591C65.6138 71.5714 66.0001 70.6388 66.0001 69.6663L66.0001 34.5185L46.1484 14.6667L25.6667 14.6663ZM17.8886 10.5548C19.9515 8.49193 22.7494 7.33301 25.6667 7.33301H46.1488C48.0933 7.33342 49.9589 8.10617 51.3338 9.48128M51.3338 9.48128L71.1848 29.3322C71.1846 29.3321 71.1849 29.3324 71.1848 29.3322C72.5599 30.7071 73.333 32.5723 73.3334 34.5169V69.6663C73.3334 72.5837 72.1745 75.3816 70.1116 77.4445C68.0487 79.5074 65.2508 80.6663 62.3334 80.6663H25.6667C22.7494 80.6663 19.9515 79.5074 17.8886 77.4445C15.8257 75.3816 14.6667 72.5837 14.6667 69.6663V18.333C14.6667 15.4156 15.8257 12.6177 17.8886 10.5548M29.3334 43.9997C29.3334 41.9746 30.975 40.333 33.0001 40.333H55.0001C57.0251 40.333 58.6668 41.9746 58.6668 43.9997C58.6668 46.0247 57.0251 47.6663 55.0001 47.6663H33.0001C30.975 47.6663 29.3334 46.0247 29.3334 43.9997ZM29.3334 58.6663C29.3334 56.6413 30.975 54.9997 33.0001 54.9997H55.0001C57.0251 54.9997 58.6668 56.6413 58.6668 58.6663C58.6668 60.6914 57.0251 62.333 55.0001 62.333H33.0001C30.975 62.333 29.3334 60.6914 29.3334 58.6663Z" fill="#515B6F"/>
<rect x="29.3333" y="40.333" width="29.3333" height="7.33333" rx="3.66667" fill="#26A4FF"/>
<rect x="29.3333" y="55" width="29.3333" height="7.33333" rx="3.66667" fill="#26A4FF"/>
</g>
</svg>
