<svg width="18" height="18" viewBox="0 0 18 18" fill="none" xmlns="http://www.w3.org/2000/svg">
<path d="M13.7117 4.31575C13.3918 3.99365 13.3918 3.47732 13.7117 3.15521L15.4302 1.02632L15.4302 0.989365C15.8655 0.558664 16.5713 0.558664 17.0067 0.989365C17.442 1.42007 17.442 2.11837 17.0067 2.54907L14.9819 4.31575L14.9063 4.38279C14.7482 4.50768 14.5511 4.57665 14.3468 4.57665C14.1085 4.57665 13.88 4.48277 13.7117 4.31575ZM0.666504 10.185C0.666504 8.2892 1.4277 6.47107 2.78264 5.13055C4.13758 3.79004 5.97527 3.03694 7.89144 3.03694C11.8817 3.03694 15.1164 6.23722 15.1164 10.185C15.1164 14.1327 11.8817 17.333 7.89144 17.333C3.90122 17.333 0.666504 14.1327 0.666504 10.185Z" fill="white"/>
</svg>
