<svg width="40" height="40" viewBox="0 0 40 40" fill="none" xmlns="http://www.w3.org/2000/svg">
<g clip-path="url(#clip0_390_39238)">
<path fill-rule="evenodd" clip-rule="evenodd" d="M6.66675 19.9997C6.66675 19.0792 7.41294 18.333 8.33341 18.333H31.6667C32.5872 18.333 33.3334 19.0792 33.3334 19.9997C33.3334 20.9201 32.5872 21.6663 31.6667 21.6663H8.33341C7.41294 21.6663 6.66675 20.9201 6.66675 19.9997Z" fill="#25324B"/>
<path fill-rule="evenodd" clip-rule="evenodd" d="M7.1549 18.8212C7.80578 18.1703 8.86105 18.1703 9.51193 18.8212L19.5119 28.8212C20.1628 29.472 20.1628 30.5273 19.5119 31.1782C18.8611 31.8291 17.8058 31.8291 17.1549 31.1782L7.1549 21.1782C6.50403 20.5273 6.50403 19.472 7.1549 18.8212Z" fill="#25324B"/>
<path fill-rule="evenodd" clip-rule="evenodd" d="M19.5119 8.82116C20.1628 9.47204 20.1628 10.5273 19.5119 11.1782L9.51193 21.1782C8.86105 21.8291 7.80578 21.8291 7.1549 21.1782C6.50403 20.5273 6.50403 19.472 7.1549 18.8212L17.1549 8.82116C17.8058 8.17029 18.8611 8.17029 19.5119 8.82116Z" fill="#25324B"/>
</g>
<defs>
<clipPath id="clip0_390_39238">
<rect width="40" height="40" fill="white"/>
</clipPath>
</defs>
</svg>
