<svg width="24" height="25" viewBox="0 0 24 25" fill="none" xmlns="http://www.w3.org/2000/svg">
<path d="M13 16.5415V17.5415C13 18.3372 12.6839 19.1002 12.1213 19.6628C11.5587 20.2254 10.7956 20.5415 10 20.5415H6C5.20435 20.5415 4.44129 20.2254 3.87868 19.6628C3.31607 19.1002 3 18.3372 3 17.5415V7.5415C3 6.74585 3.31607 5.98279 3.87868 5.42018C4.44129 4.85757 5.20435 4.5415 6 4.5415H10C10.7956 4.5415 11.5587 4.85757 12.1213 5.42018C12.6839 5.98279 13 6.74585 13 7.5415V8.5415M17 16.5415L21 12.5415L17 16.5415ZM21 12.5415L17 8.5415L21 12.5415ZM21 12.5415H7H21Z" stroke="#FF6550" stroke-width="2" stroke-linecap="round" stroke-linejoin="round"/>
</svg>
