<svg width="20" height="20" viewBox="0 0 20 20" fill="none" xmlns="http://www.w3.org/2000/svg">
<g clip-path="url(#clip0_355_6932)">
<path fill-rule="evenodd" clip-rule="evenodd" d="M3.23223 5.73223C3.70107 5.26339 4.33696 5 5 5H7.5C7.96024 5 8.33333 5.3731 8.33333 5.83333C8.33333 6.29357 7.96024 6.66667 7.5 6.66667H5C4.77899 6.66667 4.56702 6.75446 4.41074 6.91074C4.25446 7.06702 4.16667 7.27899 4.16667 7.5V15C4.16667 15.221 4.25446 15.433 4.41074 15.5893C4.56702 15.7455 4.77899 15.8333 5 15.8333H12.5C12.721 15.8333 12.933 15.7455 13.0893 15.5893C13.2455 15.433 13.3333 15.221 13.3333 15V12.5C13.3333 12.0398 13.7064 11.6667 14.1667 11.6667C14.6269 11.6667 15 12.0398 15 12.5V15C15 15.663 14.7366 16.2989 14.2678 16.7678C13.7989 17.2366 13.163 17.5 12.5 17.5H5C4.33696 17.5 3.70107 17.2366 3.23223 16.7678C2.76339 16.2989 2.5 15.663 2.5 15V7.5C2.5 6.83696 2.76339 6.20107 3.23223 5.73223Z" fill="#4640DE"/>
<path fill-rule="evenodd" clip-rule="evenodd" d="M13.9942 2.32727C14.482 1.83947 15.1436 1.56543 15.8334 1.56543C16.5233 1.56543 17.1849 1.83947 17.6727 2.32727C18.1605 2.81507 18.4345 3.47667 18.4345 4.16653C18.4345 4.85638 18.1605 5.51799 17.6727 6.00579L10.5893 13.0891C10.4331 13.2454 10.2211 13.3332 10.0001 13.3332H7.50008C7.03984 13.3332 6.66675 12.9601 6.66675 12.4999V9.99986C6.66675 9.77885 6.75455 9.56689 6.91083 9.41061L13.9942 2.32727ZM15.8334 3.2321C15.5856 3.2321 15.3479 3.33055 15.1727 3.50579L8.33341 10.345V11.6665H9.6549L16.4942 4.82727C16.6694 4.65203 16.7678 4.41436 16.7678 4.16653C16.7678 3.9187 16.6694 3.68103 16.4942 3.50579C16.3189 3.33055 16.0812 3.2321 15.8334 3.2321Z" fill="#4640DE"/>
<path fill-rule="evenodd" clip-rule="evenodd" d="M12.7441 3.57757C13.0695 3.25214 13.5972 3.25214 13.9226 3.57757L16.4226 6.07757C16.748 6.40301 16.748 6.93065 16.4226 7.25609C16.0972 7.58152 15.5695 7.58152 15.2441 7.25609L12.7441 4.75609C12.4186 4.43065 12.4186 3.90301 12.7441 3.57757Z" fill="#4640DE"/>
</g>
<defs>
<clipPath id="clip0_355_6932">
<rect width="20" height="20" fill="white"/>
</clipPath>
</defs>
</svg>
