<svg width="219" height="14" viewBox="0 0 219 14" fill="none" xmlns="http://www.w3.org/2000/svg">
<path d="M4.66985 5.83831C6.38449 5.83831 8.18078 5.77873 9.89542 5.71916C10.6303 5.71916 11.2835 5.65958 12.0183 5.65958C15.121 5.54043 18.2237 5.42128 21.3264 5.30214C25.0822 5.18299 28.7565 5.00426 32.5124 4.88512C37.8196 4.64682 43.1268 4.46809 48.434 4.22979C49.6588 4.17022 50.8835 4.17022 52.1083 4.11064C55.2109 3.9915 58.3136 3.87235 61.4163 3.81277C64.519 3.69362 67.6217 3.57447 70.7244 3.5149C71.9491 3.45532 73.1738 3.39575 74.3986 3.39575C79.2976 3.2766 84.2782 3.15745 89.1772 3.0383C92.1982 2.97873 95.2192 2.91916 98.3219 2.80001C99.5467 2.80001 100.69 2.74043 101.915 2.74043C106.65 2.68085 111.467 2.62128 116.203 2.56171C120.939 2.50213 125.593 2.44256 130.329 2.38298C131.553 2.38298 132.778 2.38298 134.084 2.38298C137.187 2.38298 140.208 2.38298 143.311 2.38298C148.128 2.38298 152.864 2.38298 157.681 2.32341C159.232 2.32341 160.784 2.32341 162.335 2.32341C165.601 2.32341 168.867 2.32341 172.133 2.32341C172.378 2.32341 172.705 2.32341 172.95 2.32341C165.601 2.38298 158.171 2.44256 150.823 2.56171C147.72 2.62128 144.699 2.62128 141.596 2.68085C140.29 2.68085 138.902 2.68085 137.595 2.74043C133.105 2.8 128.696 2.91915 124.205 2.97873C119.061 3.09788 113.917 3.15745 108.773 3.2766C107.875 3.2766 107.058 3.33617 106.16 3.33617C103.384 3.45532 100.69 3.5149 97.9137 3.63405C92.3615 3.81277 86.8093 3.99149 81.2572 4.17022C80.4407 4.17022 79.6242 4.2298 78.8077 4.28937C76.1132 4.40852 73.3371 4.58724 70.6427 4.70639C65.7437 4.94469 60.9264 5.18298 56.0274 5.42128C54.721 5.48086 53.333 5.60001 52.0266 5.65958C48.9239 5.83831 45.8212 6.01703 42.7186 6.25533C38.7994 6.49363 34.7985 6.73193 30.8794 6.97022C25.4088 7.32767 19.8567 7.68512 14.3862 8.04256C13.0798 8.10214 11.7734 8.22129 10.3853 8.28086C8.01748 8.45959 5.64965 8.63831 3.28181 8.81703C3.03686 8.81703 2.79191 8.93618 2.79191 9.17448C2.79191 9.3532 3.03686 9.53193 3.28181 9.53193C4.17995 9.53193 4.99645 9.5915 5.89459 9.5915C5.81294 9.77022 5.73129 9.94895 5.73129 10.1277C5.73129 10.783 6.46614 11.3787 7.44594 11.3787C14.2229 11.0809 20.9181 10.7234 27.695 10.4851C33.5738 10.3064 39.4526 10.0681 45.3313 9.88937C51.7817 9.65108 58.3136 9.41278 64.7639 9.23406C66.8052 9.17448 68.8464 9.1149 70.8877 8.99576C71.4592 8.99576 72.0308 8.93618 72.684 8.93618C83.1351 8.75746 93.5862 8.51916 104.037 8.34044C109.59 8.22129 115.223 8.10214 120.776 8.04256C122.817 7.98299 124.776 7.98299 126.818 7.92342C137.514 7.80427 148.21 7.68512 158.906 7.56597C163.478 7.5064 168.051 7.44682 172.623 7.38724C176.542 7.32767 180.461 7.32767 184.381 7.20852C187.647 7.14894 190.831 7.0298 194.097 6.97022C195.73 6.91065 197.363 6.91065 198.914 6.85107C202.588 6.67235 206.263 6.49362 209.937 6.3149C209.692 6.5532 209.692 6.91065 209.774 7.14895C209.855 7.44682 210.1 7.68512 210.508 7.80426C210.835 7.92341 211.325 8.04257 211.652 7.92342C212.468 7.68512 213.285 7.44682 214.019 7.20852C214.019 7.20852 214.019 7.20852 213.938 7.20852C214.019 7.20852 214.019 7.14895 214.101 7.14895C214.183 7.14895 214.264 7.08937 214.264 7.08937H214.183C214.591 6.97022 214.999 6.85108 215.489 6.67235C215.897 6.5532 216.387 6.37448 216.795 6.25533C217.285 6.0766 217.694 5.89788 218.184 5.71916C218.673 5.54043 219 5.06384 219 4.64682C219 4.40852 218.918 4.2298 218.755 3.9915C218.592 3.7532 218.184 3.45533 217.775 3.39575C217.367 3.33618 216.959 3.2766 216.551 3.2766C216.469 3.2766 216.387 3.2766 216.306 3.2766C216.061 3.2766 215.734 3.2766 215.489 3.33617C214.836 3.39575 214.264 3.45533 213.611 3.45533C213.121 3.45533 212.631 3.5149 212.06 3.5149C210.672 3.57447 209.365 3.63405 207.977 3.7532C207.651 3.7532 207.242 3.81277 206.916 3.81277C207.079 3.69362 207.161 3.57447 207.161 3.45533C207.242 3.33618 207.242 3.21703 207.242 3.09788C207.242 3.0383 207.242 2.91915 207.324 2.85958C207.324 2.74043 207.324 2.62128 207.242 2.56171C207.242 2.56171 207.324 2.56171 207.324 2.50213C207.569 2.38298 207.814 2.26383 207.977 2.02554C208.141 1.84681 208.222 1.60851 208.222 1.37022C208.222 1.13192 208.141 0.953195 207.977 0.714897C207.896 0.655323 207.814 0.536173 207.732 0.476598C207.487 0.297875 207.242 0.2383 206.997 0.178725C206.508 0.0595764 205.936 0 205.364 0C204.875 0 204.466 0 203.976 0C203.323 0 202.67 0 202.017 0C201.119 0 200.139 0 199.241 0C196.791 0 194.342 0 191.892 0C189.606 0 187.238 0 184.952 0C182.829 0 180.788 0 178.665 0C170.255 0 161.927 0.0595773 153.517 0.119152C147.23 0.178726 140.943 0.238299 134.656 0.238299C131.88 0.238299 129.022 0.297872 126.246 0.357446C119.959 0.476595 113.672 0.53617 107.385 0.655319C105.589 0.655319 103.792 0.714897 101.996 0.714897C100.935 0.714897 99.9549 0.774471 98.8935 0.774471C92.6881 0.953195 86.4827 1.13192 80.2774 1.31064C78.3994 1.37022 76.5215 1.42979 74.5619 1.48936C73.5004 1.48936 72.439 1.54894 71.3776 1.60852C65.1722 1.84681 59.0485 2.08511 52.8431 2.32341C49.6588 2.44256 46.4744 2.5617 43.2901 2.74043C37.8196 2.97873 32.3491 3.21703 26.9602 3.5149C22.2245 3.7532 17.4888 3.93192 12.7532 4.11064C12.0183 4.17022 11.2835 4.17022 10.467 4.22979C9.24223 4.28937 8.01748 4.28937 6.79274 4.34894C5.7313 4.40852 4.66985 4.40852 3.52676 4.40852C3.44511 4.22979 3.11851 4.05107 2.87356 4.05107C2.13871 4.11065 1.48552 4.17022 0.750672 4.22979C0.424073 4.22979 0.0974745 4.34894 0.0158249 4.64682C-0.0658247 4.94469 0.179124 5.24256 0.505722 5.30214C0.83232 5.36171 1.07727 5.42129 1.40387 5.48086C1.73047 5.54044 1.97541 5.54043 2.30201 5.54043C3.11851 5.77873 3.85335 5.77873 4.66985 5.83831ZM195.73 3.87235C196.71 3.87235 197.771 3.87235 198.751 3.87235C198.833 4.05107 198.996 4.17022 199.159 4.28937C198.751 4.28937 198.343 4.34894 198.016 4.34894C197.281 4.34894 196.546 4.40852 195.812 4.40852C192.546 4.46809 189.361 4.58724 186.095 4.64682C184.626 4.70639 183.156 4.76596 181.686 4.76596C179.4 4.76596 177.032 4.82554 174.746 4.82554C169.439 4.88511 164.213 4.94469 158.906 5.00426C148.618 5.12341 138.412 5.24256 128.124 5.36171C120.776 5.42128 113.427 5.60001 106.079 5.77873C95.0559 6.01703 83.9516 6.19575 72.9289 6.43405C70.7244 6.49363 68.5198 6.5532 66.3153 6.67235C60.0283 6.91065 53.7412 7.08937 47.4542 7.32767C41.3305 7.56597 35.1251 7.74469 29.0014 7.98299C28.4299 7.98299 27.8583 8.04256 27.2868 8.04256C28.9198 7.92341 30.6344 7.86384 32.2674 7.74469C38.0645 7.44682 43.8616 7.08937 49.6588 6.7915C51.7 6.67235 53.7412 6.5532 55.7008 6.43405C56.7623 6.37448 57.8237 6.3149 58.8035 6.3149C64.8456 6.0766 70.8877 5.77873 76.9297 5.54043C78.0728 5.48086 79.2976 5.42128 80.4407 5.36171C82.1553 5.30213 83.8699 5.24256 85.5029 5.24256C91.7083 5.06384 97.9137 4.88511 104.119 4.70639C105.507 4.64682 106.895 4.64682 108.202 4.58724C108.528 4.58724 108.936 4.58724 109.263 4.58724C110.243 4.58724 111.223 4.58724 112.121 4.52766C118.326 4.40852 124.613 4.34894 130.818 4.22979C133.676 4.17022 136.534 4.11064 139.392 4.11064C148.618 4.05107 157.926 3.99149 167.153 3.93192C176.869 3.93192 186.34 3.93192 195.73 3.87235Z" fill="#26A4FF"/>
<path d="M16.9987 14C17.2692 14 17.4886 13.84 17.4886 13.6426C17.4886 13.4452 17.2692 13.2852 16.9987 13.2852C16.7281 13.2852 16.5088 13.4452 16.5088 13.6426C16.5088 13.84 16.7281 14 16.9987 14Z" fill="#26A4FF"/>
</svg>
