<svg width="18" height="18" viewBox="0 0 18 18" fill="none" xmlns="http://www.w3.org/2000/svg">
<path d="M13.7119 4.31575C13.3919 3.99365 13.3919 3.47732 13.7119 3.15521L15.4303 1.02632L15.4303 0.989366C15.8656 0.558664 16.5715 0.558664 17.0068 0.989366C17.4421 1.42007 17.4421 2.11837 17.0068 2.54907L14.982 4.31575L14.9064 4.38279C14.7483 4.50768 14.5512 4.57665 14.3469 4.57665C14.1086 4.57665 13.8801 4.48277 13.7119 4.31575ZM0.666626 10.185C0.666626 8.2892 1.42782 6.47107 2.78276 5.13055C4.1377 3.79004 5.97539 3.03694 7.89156 3.03694C11.8818 3.03694 15.1165 6.23722 15.1165 10.185C15.1165 14.1327 11.8818 17.333 7.89156 17.333C3.90134 17.333 0.666626 14.1327 0.666626 10.185Z" fill="white"/>
</svg>
